<?xml version="1.0" standalone="no"?>
<!DOCTYPE svg PUBLIC "-//W3C//DTD SVG 20010904//EN"
 "http://www.w3.org/TR/2001/REC-SVG-20010904/DTD/svg10.dtd">
<svg version="1.0" xmlns="http://www.w3.org/2000/svg"
 width="673.000000pt" height="583.000000pt" viewBox="0 0 673.000000 583.000000"
 preserveAspectRatio="xMidYMid meet">

<g transform="translate(0.000000,583.000000) scale(0.100000,-0.100000)"
fill="#000000" stroke="none">
<path d="M5360 5560 c8 -5 22 -9 30 -9 10 0 8 3 -5 9 -27 12 -43 12 -25 0z"/>
<path d="M5380 5452 c-8 -4 -16 -15 -16 -24 -1 -14 4 -17 25 -12 61 13 124 15
151 5 39 -13 38 -6 0 14 -34 18 -137 29 -160 17z"/>
<path d="M5535 5364 c-38 -14 -95 -59 -95 -76 0 -4 22 -8 49 -8 44 0 106 -22
121 -42 9 -12 45 -2 45 13 0 8 5 17 10 21 6 5 3 8 -6 8 -10 0 -19 12 -23 31
-5 27 -8 30 -21 19 -12 -10 -15 -9 -15 8 0 33 -21 41 -65 26z"/>
<path d="M5667 5144 c4 -10 2 -15 -3 -12 -5 4 -8 -10 -7 -30 2 -21 0 -68 -3
-105 -6 -66 -7 -68 -25 -51 -15 13 -30 16 -71 11 -80 -10 -84 -27 -5 -27 57 0
68 -3 78 -21 11 -21 11 -21 40 8 26 25 31 39 36 99 4 54 2 77 -11 101 -17 35
-40 55 -29 27z"/>
<path d="M5196 5021 c-3 -5 3 -11 14 -14 13 -3 20 0 20 9 0 15 -26 19 -34 5z"/>
<path d="M5150 4968 c-43 -45 -43 -54 1 -53 21 0 44 6 51 13 9 9 16 8 29 -4
16 -15 17 -14 12 6 -3 12 -18 27 -32 33 -14 6 -29 16 -32 20 -4 5 -16 -2 -29
-15z"/>
<path d="M5537 4903 c-4 -3 -22 -8 -40 -9 -84 -8 -99 -17 -63 -38 14 -8 20 -8
23 0 3 8 16 6 43 -7 21 -10 53 -20 71 -21 28 -3 35 1 43 23 14 40 2 59 -37 59
-19 0 -37 -3 -40 -7z m18 -43 c3 -5 1 -10 -4 -10 -6 0 -11 5 -11 10 0 6 2 10
4 10 3 0 8 -4 11 -10z"/>
<path d="M5110 4625 c7 -9 16 -12 19 -8 4 4 10 11 15 16 5 4 -3 7 -19 7 -24 0
-26 -2 -15 -15z"/>
<path d="M5371 4591 c-11 -7 -9 -10 8 -16 31 -9 23 -39 -11 -43 l-28 -3 21
-22 20 -22 34 40 34 40 -21 18 c-23 19 -36 21 -57 8z"/>
<path d="M2019 4360 c-1 -8 -1 -21 0 -27 3 -23 -39 -14 -49 10 -8 21 -9 21 -9
-5 -1 -15 -5 -29 -11 -33 -5 -3 -7 -11 -4 -19 3 -7 -6 -17 -20 -24 -28 -13
-42 -47 -27 -66 14 -17 4 -26 -30 -26 -18 0 -26 -5 -25 -16 1 -12 -11 -16 -47
-19 -36 -3 -46 -1 -40 8 4 6 -6 4 -21 -7 -26 -17 -28 -17 -22 -1 14 37 -57
-20 -81 -65 -27 -50 -27 -58 6 -220 24 -117 37 -141 103 -186 77 -52 192 -79
338 -79 140 0 232 18 340 67 92 41 110 61 109 117 -1 54 17 129 37 152 12 14
11 17 -11 27 -30 14 -32 33 -5 50 28 17 25 47 -7 72 -46 36 -54 21 -39 -67 7
-39 5 -44 -34 -83 -51 -51 -156 -100 -215 -100 -24 0 -70 -7 -103 -15 -49 -13
-76 -14 -142 -6 -94 12 -146 25 -187 46 -15 8 -37 15 -48 15 -52 0 -137 88
-113 117 6 8 19 11 31 7 17 -5 19 -2 15 25 -5 34 12 42 38 16 12 -11 20 -12
40 -3 22 10 27 9 35 -5 6 -9 17 -17 25 -17 28 0 27 -30 -1 -60 -25 -26 -26
-28 -6 -23 12 3 33 19 48 37 l26 31 106 -3 c100 -2 215 13 206 28 -2 3 19 24
46 46 50 39 60 57 56 104 -2 24 1 25 68 32 75 8 95 5 95 -13 0 -8 -4 -8 -15 1
-9 7 -18 10 -21 7 -8 -8 28 -67 38 -61 4 3 17 0 29 -6 32 -17 32 -7 4 51 -28
57 -68 95 -86 83 -8 -4 -7 -9 2 -15 10 -6 10 -9 2 -9 -6 0 -14 4 -18 10 -6 10
-36 2 -46 -13 -11 -16 -64 7 -64 29 0 28 -25 45 -43 28 -7 -8 -21 -14 -31 -14
-9 0 -21 -4 -26 -9 -6 -5 -27 -13 -47 -16 -34 -6 -38 -5 -38 13 0 11 -6 23
-12 25 -14 6 58 10 106 7 37 -2 26 16 -15 25 -24 5 -28 9 -18 16 8 5 27 6 43
3 19 -4 26 -3 22 5 -4 6 -14 11 -22 11 -9 0 -24 5 -36 11 -11 6 -56 12 -99 12
-64 2 -79 -1 -80 -13z m88 -16 c-3 -3 -12 -4 -19 -1 -8 3 -5 6 6 6 11 1 17 -2
13 -5z m-117 -54 c0 -5 -7 -10 -15 -10 -8 0 -15 5 -15 10 0 6 7 10 15 10 8 0
15 -4 15 -10z m309 -56 c12 -26 11 -26 -21 -20 -18 4 -44 9 -58 11 -38 5 -38
6 5 20 56 19 60 18 74 -11z m-289 -18 c0 -2 -7 -7 -16 -10 -8 -3 -12 -2 -9 4
6 10 25 14 25 6z m-256 -112 c29 -11 16 -24 -24 -24 -43 0 -55 16 -17 23 12 2
23 5 24 6 1 0 8 -2 17 -5z m356 -54 c0 -5 -4 -10 -10 -10 -5 0 -10 5 -10 10 0
6 5 10 10 10 6 0 10 -4 10 -10z m420 0 c0 -5 -2 -10 -4 -10 -3 0 -8 5 -11 10
-3 6 -1 10 4 10 6 0 11 -4 11 -10z"/>
<path d="M4695 4240 c-24 -46 -19 -68 8 -29 12 18 34 39 47 46 l25 13 -32 0
c-26 0 -36 -6 -48 -30z"/>
<path d="M5385 4261 l-40 -6 0 -52 c1 -68 13 -80 47 -48 15 14 31 25 36 25 5
0 15 6 22 14 6 8 18 12 25 10 24 -9 36 5 25 27 -13 23 -7 24 28 2 l27 -16 -20
20 c-23 24 -71 38 -80 23 -3 -5 -14 -10 -23 -10 -15 0 -15 2 -2 10 8 5 11 9 5
8 -5 0 -28 -4 -50 -7z"/>
<path d="M2255 3993 c-37 -8 -80 -26 -104 -45 -22 -17 -22 -18 -4 -18 11 0 26
7 33 15 7 9 20 13 29 10 9 -2 39 6 66 20 38 19 44 24 25 24 -14 -1 -34 -3 -45
-6z"/>
<path d="M2312 3946 c2 -15 8 -26 13 -26 15 0 12 43 -3 48 -10 3 -13 -4 -10
-22z"/>
<path d="M1995 3940 c-15 -6 -6 -9 33 -9 33 -1 51 3 47 9 -7 12 -52 12 -80 0z"/>
<path d="M2191 3931 c-11 -7 -9 -10 9 -16 27 -8 90 2 90 15 0 12 -80 13 -99 1z"/>
<path d="M2184 3885 c-18 -14 -18 -14 11 -14 17 0 48 6 70 14 l40 13 -51 1
c-30 1 -58 -5 -70 -14z"/>
<path d="M5847 3613 c-4 -3 -7 -16 -6 -27 0 -19 1 -19 10 3 10 24 8 36 -4 24z"/>
<path d="M5841 3544 c0 -11 3 -14 6 -6 3 7 2 16 -1 19 -3 4 -6 -2 -5 -13z"/>
<path d="M5767 3266 c-4 -10 -1 -13 8 -9 8 3 12 9 9 14 -7 12 -11 11 -17 -5z"/>
<path d="M5746 3224 c-9 -24 -7 -27 9 -10 17 17 19 26 6 26 -5 0 -12 -7 -15
-16z"/>
<path d="M5727 3170 c-3 -12 0 -20 7 -20 6 0 12 9 13 20 1 11 -2 20 -6 20 -5
0 -11 -9 -14 -20z"/>
<path d="M4451 3173 c-1 -18 19 -67 25 -61 3 3 -2 21 -10 39 -8 19 -15 29 -15
22z"/>
<path d="M5701 3108 c-8 -18 -34 -74 -57 -125 -41 -88 -42 -92 -24 -108 17
-16 20 -15 49 6 17 13 31 27 31 31 0 5 4 7 9 4 5 -3 11 6 14 19 4 25 4 25 -14
9 -11 -9 -19 -14 -19 -9 0 4 -8 1 -17 -6 -16 -13 -17 -12 -4 4 8 9 11 20 7 24
-3 3 1 15 11 25 9 11 11 18 5 18 -7 0 -12 -4 -12 -10 0 -5 -5 -10 -10 -10 -14
0 17 72 37 88 13 9 14 12 2 12 -8 0 -10 3 -4 8 9 6 21 52 13 52 -2 0 -10 -15
-17 -32z"/>
<path d="M5699 3053 c0 -5 -2 -16 -4 -26 -2 -11 -1 -16 3 -13 8 8 14 46 7 46
-3 0 -5 -3 -6 -7z"/>
<path d="M4797 2959 c-21 -12 -22 -35 -1 -43 27 -10 34 -7 34 18 0 30 -10 37
-33 25z"/>
<path d="M5408 2926 c3 -29 9 -47 19 -51 9 -3 16 -4 17 -3 1 2 15 18 31 37 29
32 29 33 5 21 -21 -10 -23 -10 -13 1 10 10 7 15 -18 26 -44 18 -45 18 -41 -31z"/>
<path d="M4552 2923 c2 -5 12 -26 22 -48 11 -22 21 -34 23 -28 4 12 -33 83
-44 83 -2 0 -3 -3 -1 -7z"/>
<path d="M4328 2913 c12 -2 32 -2 45 0 12 2 2 4 -23 4 -25 0 -35 -2 -22 -4z"/>
<path d="M4465 2880 c3 -5 8 -10 11 -10 2 0 4 5 4 10 0 6 -5 10 -11 10 -5 0
-7 -4 -4 -10z"/>
<path d="M5768 2863 c7 -3 16 -2 19 1 4 3 -2 6 -13 5 -11 0 -14 -3 -6 -6z"/>
<path d="M5860 2853 c36 -8 71 -15 78 -16 7 0 22 -13 33 -29 11 -15 26 -28 32
-28 8 0 8 3 -1 9 -10 6 -8 10 8 14 21 6 22 6 4 25 -28 28 -79 42 -153 41 l-66
-1 65 -15z"/>
<path d="M4815 2800 c-28 -7 -28 -8 -5 -9 14 0 32 4 40 9 17 11 8 11 -35 0z"/>
<path d="M5231 2806 c9 -9 190 -66 209 -66 37 0 20 18 -22 25 -24 4 -73 15
-109 26 -66 19 -86 23 -78 15z"/>
<path d="M6025 2780 c3 -5 8 -10 11 -10 2 0 4 5 4 10 0 6 -5 10 -11 10 -5 0
-7 -4 -4 -10z"/>
<path d="M6022 2751 c4 -13 18 -16 19 -4 0 4 -5 9 -11 12 -7 2 -11 -2 -8 -8z"/>
<path d="M6040 2711 c0 -5 5 -13 10 -16 6 -3 10 -2 10 4 0 5 -4 13 -10 16 -5
3 -10 2 -10 -4z"/>
<path d="M5326 2641 c-7 -11 17 -21 49 -21 36 0 39 17 4 24 -41 8 -47 8 -53
-3z"/>
<path d="M6020 2588 c1 -31 1 -32 15 -13 17 21 15 37 -3 43 -8 2 -12 -8 -12
-30z"/>
<path d="M4875 2590 c-9 -15 4 -30 27 -30 14 0 18 5 14 16 -3 9 -6 18 -6 20 0
8 -29 4 -35 -6z"/>
<path d="M5305 2510 c-4 -7 3 -8 22 -4 38 9 42 14 10 14 -14 0 -29 -5 -32 -10z"/>
<path d="M5973 2493 c-20 -21 -21 -23 -4 -23 11 0 21 9 24 22 8 28 6 29 -20 1z"/>
<path d="M5666 2463 c-59 -3 -85 -9 -103 -23 l-24 -19 33 5 c131 17 182 22
196 17 15 -4 15 -3 2 7 -13 10 -11 11 8 7 12 -3 20 -1 16 4 -3 5 -15 8 -27 7
-12 -1 -58 -4 -101 -5z"/>
<path d="M5830 2454 c-17 -9 -20 -14 -9 -14 9 0 22 7 29 15 15 18 13 18 -20
-1z"/>
<path d="M5340 2411 c0 -7 -5 -9 -12 -5 -8 4 -10 3 -5 -2 5 -5 42 -9 83 -9 79
-1 72 9 -16 21 -36 5 -50 3 -50 -5z"/>
</g>
</svg>
